<?xml version="1.0" encoding="UTF-8" standalone="no"?>
<!-- Created with Inkscape (http://www.inkscape.org/) -->

<svg
   width="325mm"
   height="129.92621mm"
   viewBox="0 0 325 129.92621"
   version="1.1"
   id="svg1"
   xml:space="preserve"
   inkscape:version="1.3.2 (091e20e, 2023-11-25, custom)"
   sodipodi:docname="logo.svg"
   xmlns:inkscape="http://www.inkscape.org/namespaces/inkscape"
   xmlns:sodipodi="http://sodipodi.sourceforge.net/DTD/sodipodi-0.dtd"
   xmlns="http://www.w3.org/2000/svg"
   xmlns:svg="http://www.w3.org/2000/svg"><sodipodi:namedview
     id="namedview1"
     pagecolor="#ffffff"
     bordercolor="#000000"
     borderopacity="0.25"
     inkscape:showpageshadow="2"
     inkscape:pageopacity="0.0"
     inkscape:pagecheckerboard="0"
     inkscape:deskcolor="#d1d1d1"
     inkscape:document-units="mm"
     inkscape:zoom="0.4894542"
     inkscape:cx="621.09999"
     inkscape:cy="268.66661"
     inkscape:window-width="1920"
     inkscape:window-height="991"
     inkscape:window-x="-9"
     inkscape:window-y="-9"
     inkscape:window-maximized="1"
     inkscape:current-layer="layer1"
     showgrid="false" /><defs
     id="defs1" /><g
     inkscape:label="Laag 1"
     inkscape:groupmode="layer"
     id="layer1"
     transform="translate(-10.5,-40.423656)"><path
       id="rect1"
       style="font-variation-settings:'wght' 500;fill:#1d87c2;fill-opacity:1;stroke:none;stroke-width:0.191999;stroke-linecap:square;stroke-linejoin:bevel"
       d="m 200.9332,40.423656 a 21.49996,21.49996 0 0 0 -21.49993,21.499939 21.49996,21.49996 0 0 0 9.06662,17.480808 v 4.17442 C 182.90235,83.940103 178.5,88.554433 178.5,94.246363 V 101.00589 157.84082 170 h 44.99974 v -12.15401 c 0,-0.001 2.6e-4,-0.003 2.6e-4,-0.005 V 94.246363 c 0,-5.69202 -4.40248,-10.30639 -10.00014,-10.66754 v -4.27415 A 21.49996,21.49996 0 0 0 222.43315,61.923595 21.49996,21.49996 0 0 0 200.9332,40.423656 Z" /><path
       id="rect1-7"
       style="font-variation-settings:'wght' 500;fill:#002e54;fill-opacity:1;stroke:none;stroke-width:0.191999;stroke-linecap:square;stroke-linejoin:bevel"
       d="m 32.93321,40.423678 a 21.499956,21.499956 0 0 0 -21.49994,21.499936 21.499956,21.499956 0 0 0 9.06661,17.480809 v 4.174413 C 14.90235,83.940116 10.5,88.554446 10.5,94.24638 V 101.0059 157.84081 170 h 44.99974 v -12.15401 c 0,-0.001 2.6e-4,-0.003 2.6e-4,-0.006 V 94.24638 C 55.5,88.554361 51.09753,83.93999 45.49986,83.578836 V 79.304688 A 21.499956,21.499956 0 0 0 54.43314,61.923614 21.499956,21.499956 0 0 0 32.93321,40.423678 Z" /><path
       id="path3"
       style="font-variation-settings:'wght' 500;fill:none;fill-opacity:1;stroke:#002e54;stroke-width:1.471;stroke-linecap:square;stroke-linejoin:bevel;stroke-dasharray:none;stroke-opacity:1"
       d="M 67.672495,103.84399 H 111.17486 M 89.284226,42.258861 A 21.131469,21.131469 0 0 0 68.152781,63.390305 21.131469,21.131469 0 0 0 77.063996,80.571512 V 84.67438 C 71.562386,85.029422 67.2355,89.564712 67.2355,95.159094 v 6.643666 55.86082 11.95079 h 44.22848 v -11.94571 c 0,-10e-4 2.6e-4,-0.003 2.6e-4,-0.005 V 95.159094 c 0,-5.594462 -4.32704,-10.129752 -9.82873,-10.484714 V 80.473487 A 21.131469,21.131469 0 0 0 110.41569,63.390305 21.131469,21.131469 0 0 0 89.284226,42.258861 Z" /><path
       id="path3-0"
       style="font-variation-settings:'wght' 500;fill:none;fill-opacity:1;stroke:#002e54;stroke-width:1.471;stroke-linecap:square;stroke-linejoin:bevel;stroke-dasharray:none;stroke-opacity:1"
       d="m 235.6725,103.84399 h 43.50237 M 257.28423,42.258863 a 21.131469,21.131469 0 0 0 -21.13145,21.131444 21.131469,21.131469 0 0 0 8.91122,17.181207 v 4.102868 c -5.50161,0.355042 -9.8285,4.890332 -9.8285,10.484717 v 6.643661 55.86082 11.95079 h 44.22849 v -11.94571 c 0,-10e-4 2.6e-4,-0.003 2.6e-4,-0.005 V 95.159099 c 0,-5.594465 -4.32704,-10.129755 -9.82874,-10.484717 V 80.473489 A 21.131469,21.131469 0 0 0 278.4157,63.390307 21.131469,21.131469 0 0 0 257.28423,42.258863 Z" /><path
       id="rect1-4"
       style="font-variation-settings:'wght' 500;fill:#d6be76;fill-opacity:1;stroke:none;stroke-width:0.192;stroke-linecap:square;stroke-linejoin:bevel"
       d="m 144.93322,40.423688 a 21.499954,21.499954 0 0 0 -21.49994,21.499934 21.499954,21.499954 0 0 0 9.06661,17.480808 v 4.174412 C 126.90236,83.940121 122.5,88.554451 122.5,94.246384 V 101.00591 157.84082 170 h 44.99975 v -12.15401 c 0,-0.001 2.6e-4,-0.004 2.6e-4,-0.005 V 94.246384 c 0,-5.692018 -4.40248,-10.306388 -10.00014,-10.667542 v -4.274148 a 21.499954,21.499954 0 0 0 8.93328,-17.381072 21.499954,21.499954 0 0 0 -21.49993,-21.499934 z" /><path
       id="rect1-44"
       style="font-variation-settings:'wght' 500;fill:#f292b7;fill-opacity:1;stroke:none;stroke-width:0.192;stroke-linecap:square;stroke-linejoin:bevel"
       d="m 312.93321,40.423683 a 21.499954,21.499954 0 0 0 -21.49994,21.499934 21.499954,21.499954 0 0 0 9.06661,17.480808 v 4.174412 C 294.90235,83.940116 290.5,88.554446 290.5,94.246379 V 101.00591 157.84082 170 h 44.99974 v -12.15401 c 0,-0.001 2.6e-4,-0.004 2.6e-4,-0.005 V 94.246379 c 0,-5.692018 -4.40248,-10.306388 -10.00014,-10.667542 v -4.274148 a 21.499954,21.499954 0 0 0 8.93328,-17.381072 21.499954,21.499954 0 0 0 -21.49993,-21.499934 z" /></g></svg>
