<?xml version="1.0" encoding="UTF-8" standalone="no"?>
<!-- Created with Inkscape (http://www.inkscape.org/) -->

<svg
   width="101.34988mm"
   height="129.92563mm"
   viewBox="0 0 101.34988 129.92562"
   version="1.1"
   id="svg1"
   xml:space="preserve"
   inkscape:version="1.3.2 (091e20e, 2023-11-25, custom)"
   sodipodi:docname="witroze.svg"
   xmlns:inkscape="http://www.inkscape.org/namespaces/inkscape"
   xmlns:sodipodi="http://sodipodi.sourceforge.net/DTD/sodipodi-0.dtd"
   xmlns="http://www.w3.org/2000/svg"
   xmlns:svg="http://www.w3.org/2000/svg"><sodipodi:namedview
     id="namedview1"
     pagecolor="#ffffff"
     bordercolor="#000000"
     borderopacity="0.25"
     inkscape:showpageshadow="2"
     inkscape:pageopacity="0.0"
     inkscape:pagecheckerboard="0"
     inkscape:deskcolor="#d1d1d1"
     inkscape:document-units="mm"
     inkscape:zoom="0.69219276"
     inkscape:cx="31.783054"
     inkscape:cy="185.64193"
     inkscape:window-width="1920"
     inkscape:window-height="991"
     inkscape:window-x="-9"
     inkscape:window-y="-9"
     inkscape:window-maximized="1"
     inkscape:current-layer="layer1" /><defs
     id="defs1" /><g
     inkscape:label="Laag 1"
     inkscape:groupmode="layer"
     id="layer1"
     transform="translate(-54.650124,-40.424)"><path
       id="path3"
       style="font-variation-settings:'wght' 500;fill:none;fill-opacity:1;stroke:#002e54;stroke-width:1.471;stroke-linecap:square;stroke-linejoin:bevel;stroke-dasharray:none;stroke-opacity:1"
       d="M 55.822623,103.84376 H 99.324979 M 77.434352,42.258624 a 21.131468,21.131468 0 0 0 -21.131448,21.131448 21.131468,21.131468 0 0 0 8.911218,17.181206 v 4.102866 c -5.501605,0.355087 -9.828498,4.890333 -9.828498,10.484711 v 6.643675 55.86082 11.95078 h 44.228491 v -11.9457 c 0,-0.001 2.61e-4,-0.004 2.61e-4,-0.005 V 95.158855 c 0,-5.594462 -4.327032,-10.129747 -9.828759,-10.484711 V 80.473251 A 21.131468,21.131468 0 0 0 98.565801,63.390072 21.131468,21.131468 0 0 0 77.434352,42.258624 Z" /><path
       id="rect1"
       style="font-variation-settings:'wght' 500;fill:#f292b7;fill-opacity:1;stroke:none;stroke-width:0.192;stroke-linecap:square;stroke-linejoin:bevel"
       d="m 133.43321,40.424 a 21.499956,21.499956 0 0 0 -21.49994,21.499936 21.499956,21.499956 0 0 0 9.06661,17.48081 v 4.174413 C 115.40234,83.940438 111,88.554769 111,94.246702 v 6.759528 56.83491 12.15919 h 44.99974 v -12.15402 c 0,-10e-4 2.6e-4,-0.004 2.6e-4,-0.005 V 94.246702 c 0,-5.692018 -4.40248,-10.306389 -10.00014,-10.667543 V 79.30501 A 21.499956,21.499956 0 0 0 154.93314,61.923936 21.499956,21.499956 0 0 0 133.43321,40.424 Z" /></g></svg>
